# xmcd
#
# Track frame offsets: 
#        150
#        14239
#        32524
#        47292
#        65407
#        78698
#        91243
#        107360
#        122904
#        145066
#        160548
#        174524
#        189633
#        202917
#
# Disc length: 2957 seconds
#
# Revision: 0
# Processed by: cddbd v1.5.2PL0 Copyright (c) Steve Scherf et al.
# Submitted via: ExactAudioCopy v1.0b2
#
DISCID=af0b8b0e
DTITLE=Yulie Ruth - Yodels
DYEAR=2006
DGENRE=Country
TTITLE0=Tren de Honky Tonk
TTITLE1=La banda, las canciones (Estar con vos)
TTITLE2=Héroes de barro
TTITLE3=Soleado en la lluvia
TTITLE4=Mi colorada yodel blues
TTITLE5=Sobre ruedas
TTITLE6=Es malo ser bueno a veces
TTITLE7=Texas
TTITLE8=Veinte de nuevo
TTITLE9=De regreso del show
TTITLE10=Pasajero de otro tiempo
TTITLE11=El cantante vagabundo
TTITLE12=A lo mejor
TTITLE13=Brillo de Luna
EXTD=
EXTT0=
EXTT1=
EXTT2=
EXTT3=
EXTT4=
EXTT5=
EXTT6=
EXTT7=
EXTT8=
EXTT9=
EXTT10=
EXTT11=
EXTT12=
EXTT13=
PLAYORDER=
